<?xml version="1.0" standalone="no"?>
<!DOCTYPE svg PUBLIC "-//W3C//DTD SVG 20010904//EN"
 "http://www.w3.org/TR/2001/REC-SVG-20010904/DTD/svg10.dtd">
<svg version="1.0" xmlns="http://www.w3.org/2000/svg"
 width="224.000000pt" height="224.000000pt" viewBox="0 0 224.000000 224.000000"
 preserveAspectRatio="xMidYMid meet">

<g transform="translate(0.000000,224.000000) scale(0.100000,-0.100000)"
fill="#000000" stroke="none">
<path d="M130 2225 c-75 -34 -120 -103 -120 -185 0 -65 18 -108 63 -147 41
-36 77 -48 190 -62 135 -16 181 -64 198 -210 12 -97 24 -134 57 -173 82 -97
245 -87 313 20 36 58 45 104 30 161 -26 96 -95 143 -230 156 -87 8 -140 31
-174 77 -31 41 -35 57 -47 156 -11 99 -37 153 -91 189 -51 33 -136 41 -189 18z"/>
<path d="M1963 2229 c-70 -20 -133 -121 -133 -210 0 -55 -22 -130 -47 -160
-38 -44 -78 -61 -180 -75 -118 -17 -164 -40 -200 -101 -96 -164 65 -356 240
-289 84 32 121 93 136 224 16 150 63 196 219 217 111 14 146 29 190 79 35 40
47 85 40 157 -12 118 -140 194 -265 158z"/>
<path d="M595 855 c-51 -18 -101 -72 -115 -123 -5 -22 -15 -75 -20 -118 -18
-141 -64 -180 -243 -207 -111 -17 -153 -41 -187 -107 -24 -46 -26 -126 -6
-173 17 -39 71 -92 109 -106 78 -30 183 -2 230 61 32 44 37 59 48 156 17 154
65 205 210 222 108 13 161 33 198 76 73 83 63 206 -23 282 -57 50 -127 63
-201 37z"/>
<path d="M1518 858 c-76 -20 -148 -114 -148 -192 0 -42 22 -97 51 -130 37 -43
86 -63 186 -75 89 -11 107 -16 146 -43 41 -29 63 -82 76 -182 15 -112 29 -144
76 -184 132 -109 325 -16 325 157 0 123 -69 183 -232 201 -151 17 -202 67
-218 214 -17 145 -59 209 -155 235 -46 13 -57 12 -107 -1z"/>
</g>
</svg>
