<svg id="svg" version="1.1" xmlns="http://www.w3.org/2000/svg" xmlns:xlink="http://www.w3.org/1999/xlink" width="400" height="400" viewBox="0, 0, 400,400"><g id="svgg"><path id="path0" d="M32.667 32.667 C 32.334 33.000,32.310 366.499,32.643 367.367 C 32.941 368.144,365.778 368.361,367.226 367.586 C 368.322 366.999,368.463 33.063,367.367 32.643 C 366.499 32.310,33.000 32.334,32.667 32.667 M342.525 56.371 C 344.473 57.112,344.397 51.212,344.380 200.109 C 344.363 351.876,344.491 342.481,342.422 343.588 C 341.898 343.868,296.388 344.000,199.996 344.000 L 58.338 344.000 57.168 342.829 L 55.997 341.658 56.098 199.594 L 56.200 57.529 57.144 56.765 C 58.198 55.911,340.292 55.522,342.525 56.371 M150.400 132.490 C 148.970 132.665,147.170 133.144,146.400 133.555 C 145.630 133.966,144.290 134.429,143.421 134.584 C 142.553 134.739,141.430 135.191,140.925 135.588 C 140.420 135.985,139.337 136.435,138.517 136.589 C 137.698 136.743,136.800 137.193,136.523 137.589 C 136.246 137.985,135.532 138.431,134.936 138.580 C 134.341 138.730,133.333 139.290,132.696 139.826 C 132.060 140.362,131.297 140.800,131.003 140.800 C 130.708 140.800,130.407 140.963,130.333 141.161 C 130.125 141.726,125.882 144.800,125.311 144.800 C 125.030 144.800,124.800 145.064,124.800 145.386 C 124.800 145.708,124.456 146.156,124.036 146.381 C 123.051 146.908,120.908 149.051,120.381 150.036 C 120.156 150.456,119.708 150.800,119.386 150.800 C 119.064 150.800,118.800 150.992,118.800 151.227 C 118.800 151.628,117.351 153.559,115.300 155.893 C 114.805 156.456,114.400 157.071,114.400 157.258 C 114.400 157.446,114.085 157.921,113.700 158.312 C 113.315 158.704,112.640 159.724,112.200 160.579 C 111.760 161.434,111.066 162.778,110.658 163.567 C 110.251 164.355,109.682 165.270,109.396 165.600 C 109.109 165.930,108.676 166.944,108.434 167.853 C 108.192 168.763,107.734 169.722,107.417 169.986 C 107.099 170.250,106.720 171.263,106.573 172.237 C 106.427 173.212,105.986 174.418,105.594 174.917 C 105.201 175.417,104.754 176.900,104.602 178.213 C 104.449 179.526,103.992 181.320,103.587 182.200 C 101.431 186.875,101.419 213.099,103.569 218.078 C 103.978 219.025,104.441 220.874,104.596 222.187 C 104.755 223.524,105.205 224.989,105.619 225.516 C 106.026 226.033,106.478 227.248,106.623 228.215 C 106.768 229.183,107.136 230.181,107.441 230.434 C 107.745 230.686,108.192 231.637,108.434 232.547 C 108.676 233.456,109.109 234.470,109.396 234.800 C 109.682 235.130,110.251 236.045,110.658 236.833 C 111.066 237.622,111.760 238.966,112.200 239.821 C 112.640 240.676,113.315 241.696,113.700 242.088 C 114.085 242.479,114.400 242.953,114.400 243.141 C 114.400 243.328,114.940 244.046,115.600 244.737 C 116.260 245.428,116.800 246.245,116.800 246.554 C 116.800 246.862,117.072 247.219,117.403 247.346 C 117.735 247.473,118.214 248.033,118.468 248.589 C 118.721 249.145,119.163 249.600,119.450 249.600 C 119.737 249.600,120.162 249.955,120.394 250.388 C 121.412 252.290,127.758 257.646,131.300 259.592 C 132.125 260.045,132.800 260.573,132.800 260.765 C 132.800 260.956,133.218 261.218,133.729 261.346 C 134.240 261.475,135.328 262.034,136.147 262.590 C 136.966 263.145,137.853 263.602,138.118 263.604 C 138.383 263.606,139.500 264.050,140.600 264.591 C 141.700 265.132,142.967 265.581,143.415 265.587 C 143.864 265.594,144.944 265.976,145.815 266.435 C 146.964 267.041,148.226 267.288,150.400 267.335 L 153.400 267.400 153.501 200.267 C 153.557 163.343,153.467 132.917,153.301 132.652 C 153.082 132.303,152.289 132.258,150.400 132.490 M195.003 132.673 C 193.904 132.771,192.732 133.100,192.396 133.403 C 192.061 133.707,190.911 134.151,189.840 134.391 C 187.568 134.900,186.474 135.666,182.977 139.200 C 178.978 143.240,178.800 143.447,178.800 144.064 C 178.800 144.382,178.305 145.623,177.700 146.821 L 176.600 149.000 176.600 208.200 L 176.600 267.400 198.400 267.514 C 210.390 267.577,220.785 267.524,221.500 267.396 L 222.800 267.164 222.800 210.086 L 222.800 153.008 221.900 149.005 C 221.397 146.768,220.691 144.693,220.300 144.301 C 219.915 143.916,219.600 143.399,219.600 143.153 C 219.600 142.109,215.073 137.377,213.100 136.358 C 212.275 135.932,211.600 135.445,211.600 135.275 C 211.600 135.105,210.747 134.738,209.705 134.459 C 208.663 134.180,207.538 133.706,207.205 133.406 C 206.553 132.816,198.678 132.343,195.003 132.673 M265.853 132.672 C 264.563 132.766,263.123 133.083,262.653 133.377 C 262.184 133.671,261.101 134.133,260.246 134.404 C 258.494 134.960,256.342 136.267,254.684 137.781 C 254.070 138.341,253.424 138.800,253.248 138.800 C 253.072 138.800,252.723 139.250,252.473 139.800 C 252.222 140.350,251.743 140.800,251.409 140.800 C 251.074 140.800,250.800 141.045,250.800 141.344 C 250.800 141.643,250.348 142.554,249.797 143.367 C 249.245 144.180,248.609 145.668,248.383 146.674 C 248.158 147.680,247.710 148.879,247.387 149.340 C 246.878 150.067,246.800 157.934,246.800 208.889 L 246.800 267.600 269.786 267.600 C 292.295 267.600,292.781 267.584,293.196 266.807 C 293.491 266.256,293.587 248.370,293.510 208.107 L 293.400 150.200 292.500 148.606 C 292.005 147.729,291.600 146.542,291.600 145.968 C 291.600 145.394,291.256 144.613,290.837 144.233 C 290.417 143.853,289.842 142.985,289.560 142.303 C 288.912 140.739,285.399 137.240,283.468 136.237 C 282.661 135.817,282.000 135.322,282.000 135.137 C 282.000 134.952,281.775 134.799,281.500 134.798 C 280.461 134.793,278.005 133.948,277.467 133.410 C 276.855 132.797,270.060 132.366,265.853 132.672 " stroke="none" fill="#0563a7" fill-rule="evenodd"></path><path id="path1" d="M31.436 31.631 L 30.400 32.861 30.400 200.070 L 30.400 367.279 31.642 368.440 L 32.885 369.600 200.195 369.600 L 367.505 369.600 368.753 368.324 L 370.000 367.048 370.000 200.013 L 370.000 32.978 368.823 31.689 L 367.645 30.400 200.058 30.400 L 32.471 30.400 31.436 31.631 M368.069 31.862 C 369.153 32.843,369.222 366.871,368.138 368.069 C 367.048 369.273,33.205 369.205,32.000 368.000 C 31.203 367.203,31.200 366.667,31.200 200.075 L 31.200 32.951 32.016 32.075 L 32.831 31.200 200.084 31.200 C 355.153 31.200,367.390 31.248,368.069 31.862 M58.029 57.854 L 57.200 58.908 57.200 200.054 C 57.200 340.667,57.203 341.203,58.000 342.000 C 58.797 342.797,59.333 342.800,200.130 342.800 L 341.461 342.800 342.330 341.874 L 343.200 340.948 343.200 200.036 L 343.200 59.123 342.373 57.962 L 341.546 56.800 200.202 56.800 L 58.858 56.800 58.029 57.854 M341.534 58.521 C 342.195 59.317,342.249 340.618,341.588 341.415 C 340.767 342.403,58.894 342.289,58.487 341.300 C 58.099 340.353,58.119 60.491,58.508 59.100 L 58.815 58.000 199.959 58.000 C 315.353 58.000,341.181 58.095,341.534 58.521 M150.800 130.800 C 149.810 131.215,148.460 131.567,147.800 131.581 C 147.140 131.596,145.700 132.050,144.600 132.591 C 143.500 133.132,142.219 133.581,141.754 133.587 C 141.289 133.594,140.479 133.926,139.954 134.324 C 139.429 134.723,138.225 135.273,137.279 135.547 C 136.332 135.821,135.464 136.288,135.350 136.586 C 135.236 136.884,134.675 137.245,134.105 137.388 C 133.535 137.531,132.603 138.011,132.034 138.454 C 131.465 138.897,129.897 139.956,128.550 140.808 C 124.508 143.364,113.200 155.024,113.200 156.636 C 113.200 156.946,113.024 157.200,112.808 157.200 C 112.593 157.200,112.066 157.887,111.637 158.727 C 111.209 159.566,110.575 160.489,110.229 160.776 C 109.883 161.063,109.600 161.601,109.600 161.971 C 109.600 162.342,109.150 163.255,108.600 164.000 C 108.050 164.745,107.600 165.645,107.600 166.000 C 107.600 166.355,107.172 167.224,106.649 167.933 C 106.127 168.642,105.578 169.977,105.430 170.900 C 105.283 171.824,104.896 172.873,104.571 173.232 C 104.246 173.591,103.778 175.036,103.532 176.442 C 103.285 177.849,102.838 179.375,102.539 179.833 C 102.240 180.291,101.734 182.721,101.414 185.233 C 101.095 187.745,100.646 190.429,100.416 191.197 C 99.770 193.365,99.892 206.348,100.588 209.521 C 100.911 210.994,101.351 213.856,101.565 215.880 C 101.780 217.904,102.234 219.985,102.575 220.506 C 102.916 221.026,103.316 222.340,103.464 223.426 C 103.612 224.512,104.153 226.192,104.666 227.160 C 105.180 228.127,105.600 229.250,105.600 229.654 C 105.600 230.287,107.342 234.168,108.448 236.000 C 108.647 236.330,109.143 237.323,109.550 238.206 C 109.958 239.089,110.585 240.056,110.945 240.355 C 111.305 240.653,111.600 241.165,111.600 241.491 C 111.600 241.818,112.005 242.600,112.500 243.229 C 112.995 243.859,113.940 245.117,114.600 246.024 C 115.260 246.932,116.575 248.498,117.522 249.504 C 118.468 250.510,119.420 251.663,119.636 252.067 C 119.852 252.470,120.271 252.800,120.567 252.800 C 120.864 252.800,121.201 253.159,121.315 253.598 C 121.430 254.037,121.794 254.499,122.123 254.626 C 122.453 254.752,123.591 255.653,124.652 256.628 C 125.714 257.603,126.689 258.400,126.819 258.400 C 126.949 258.400,127.661 258.940,128.400 259.600 C 129.139 260.260,130.028 260.800,130.376 260.800 C 130.723 260.800,131.222 261.144,131.485 261.564 C 131.747 261.984,132.495 262.445,133.148 262.588 C 133.800 262.732,134.429 263.098,134.545 263.402 C 134.662 263.706,135.532 264.181,136.479 264.458 C 137.425 264.734,138.656 265.289,139.213 265.691 C 139.770 266.093,140.940 266.537,141.813 266.677 C 142.686 266.817,143.850 267.257,144.400 267.654 C 145.018 268.099,146.470 268.469,148.200 268.619 C 149.740 268.754,151.521 269.062,152.158 269.304 C 155.027 270.396,154.819 276.095,154.703 199.519 C 154.585 121.085,155.036 129.023,150.800 130.800 M153.894 132.032 C 154.667 133.546,154.597 267.106,153.823 268.127 C 153.148 269.019,147.780 268.430,144.922 267.151 C 143.999 266.738,143.012 266.400,142.728 266.400 C 142.249 266.400,140.470 265.622,136.023 263.468 C 134.239 262.604,132.445 261.507,128.448 258.837 C 124.436 256.158,114.000 245.450,114.000 244.013 C 114.000 243.817,113.763 243.419,113.474 243.129 C 112.551 242.200,110.000 238.006,110.000 237.416 C 110.000 237.103,109.835 236.745,109.633 236.620 C 109.110 236.297,106.152 230.002,105.826 228.519 C 105.676 227.837,105.204 226.592,104.777 225.754 C 104.350 224.916,104.000 223.814,104.000 223.305 C 104.000 222.796,103.624 221.350,103.165 220.090 C 101.727 216.144,100.411 202.758,100.856 196.600 C 101.401 189.072,102.318 182.119,102.920 180.954 C 103.252 180.313,103.649 178.892,103.804 177.795 C 103.959 176.698,104.394 175.260,104.770 174.600 C 105.147 173.940,105.661 172.590,105.912 171.600 C 106.367 169.809,110.132 162.169,111.751 159.753 C 115.444 154.240,117.079 152.147,120.400 148.679 C 122.490 146.496,124.830 144.283,125.600 143.761 C 126.370 143.239,128.530 141.729,130.400 140.407 C 132.270 139.084,134.011 138.002,134.269 138.001 C 134.527 138.001,135.247 137.577,135.869 137.061 C 136.491 136.544,137.540 135.990,138.200 135.830 C 138.860 135.669,139.702 135.265,140.071 134.933 C 140.441 134.600,141.521 134.163,142.471 133.961 C 143.422 133.759,145.010 133.256,146.000 132.843 C 150.695 130.884,153.179 130.629,153.894 132.032 M193.781 131.561 C 192.450 131.692,190.920 132.087,190.381 132.437 C 189.841 132.787,188.872 133.204,188.227 133.363 C 187.582 133.522,186.533 134.090,185.896 134.626 C 185.260 135.162,184.617 135.601,184.469 135.602 C 184.017 135.605,181.368 138.352,178.499 141.791 C 178.003 142.385,177.484 143.350,177.345 143.935 C 177.206 144.521,176.841 145.290,176.534 145.645 C 175.282 147.091,175.188 151.459,175.166 209.000 C 175.144 268.962,175.128 268.268,176.544 268.619 C 178.665 269.144,223.070 268.606,223.744 268.047 C 224.746 267.215,224.566 149.527,223.560 147.982 C 223.209 147.442,222.795 146.321,222.641 145.491 C 222.486 144.661,222.009 143.763,221.580 143.495 C 221.151 143.227,220.800 142.694,220.800 142.311 C 220.800 140.480,213.757 134.097,211.000 133.428 C 210.340 133.269,209.483 132.852,209.095 132.502 C 207.966 131.484,199.699 130.976,193.781 131.561 M264.400 131.590 C 262.970 131.742,261.083 132.257,260.206 132.733 C 259.329 133.210,258.309 133.600,257.939 133.600 C 255.983 133.600,247.600 142.313,247.600 144.346 C 247.600 144.623,247.148 145.805,246.595 146.973 L 245.591 149.097 245.595 208.448 C 245.599 263.736,245.645 267.834,246.276 268.300 C 246.799 268.687,252.243 268.800,270.267 268.800 L 293.582 268.800 294.200 267.857 C 294.752 267.014,294.806 260.560,294.709 207.757 L 294.600 148.600 293.743 147.200 C 293.272 146.430,292.765 145.227,292.617 144.528 C 292.470 143.828,292.078 143.031,291.748 142.757 C 291.418 142.483,290.872 141.727,290.536 141.077 C 289.263 138.615,283.747 133.997,281.400 133.428 C 280.740 133.269,279.886 132.855,279.503 132.510 C 278.317 131.441,270.359 130.956,264.400 131.590 M280.000 133.395 C 285.607 135.792,292.400 142.521,292.400 145.678 C 292.400 146.093,292.805 147.190,293.300 148.116 L 294.200 149.800 294.310 208.358 C 294.412 262.723,294.372 266.968,293.748 267.658 C 292.854 268.645,247.257 268.833,246.444 267.853 C 245.635 266.878,246.021 149.241,246.837 147.982 C 247.187 147.442,247.599 146.489,247.753 145.865 C 248.681 142.100,253.656 136.563,257.865 134.610 C 259.149 134.014,260.740 133.229,261.400 132.866 C 264.247 131.299,275.871 131.629,280.000 133.395 M208.969 133.213 C 213.844 135.165,218.402 138.924,220.267 142.529 C 220.617 143.206,221.135 143.992,221.417 144.275 C 221.700 144.557,222.128 145.646,222.369 146.694 C 222.609 147.742,223.076 149.589,223.406 150.797 C 224.361 154.299,224.292 266.860,223.334 267.655 C 222.138 268.648,177.161 268.661,176.263 267.670 C 175.624 266.963,175.587 263.081,175.690 207.757 L 175.800 148.600 176.686 146.800 C 177.173 145.810,177.824 144.370,178.133 143.600 C 179.539 140.091,184.806 135.530,189.997 133.324 C 194.516 131.405,204.310 131.347,208.969 133.213 " stroke="none" fill="#96c2de" fill-rule="evenodd"></path><path id="path2" d="M32.016 32.075 L 31.200 32.951 31.200 200.075 C 31.200 366.667,31.203 367.203,32.000 368.000 C 33.205 369.205,367.048 369.273,368.138 368.069 C 369.222 366.871,369.153 32.843,368.069 31.862 C 367.390 31.248,355.153 31.200,200.084 31.200 L 32.831 31.200 32.016 32.075 M367.367 32.643 C 368.463 33.063,368.322 366.999,367.226 367.586 C 365.778 368.361,32.941 368.144,32.643 367.367 C 32.310 366.499,32.334 33.000,32.667 32.667 C 33.000 32.334,366.499 32.310,367.367 32.643 M57.144 56.765 L 56.200 57.529 56.098 199.594 L 55.997 341.658 57.168 342.829 L 58.338 344.000 199.996 344.000 C 296.388 344.000,341.898 343.868,342.422 343.588 C 344.491 342.481,344.363 351.876,344.380 200.109 C 344.397 51.212,344.473 57.112,342.525 56.371 C 340.292 55.522,58.198 55.911,57.144 56.765 M342.373 57.962 L 343.200 59.123 343.200 200.036 L 343.200 340.948 342.330 341.874 L 341.461 342.800 200.130 342.800 C 59.333 342.800,58.797 342.797,58.000 342.000 C 57.203 341.203,57.200 340.667,57.200 200.054 L 57.200 58.908 58.029 57.854 L 58.858 56.800 200.202 56.800 L 341.546 56.800 342.373 57.962 M150.200 131.487 C 148.880 131.820,146.990 132.430,146.000 132.843 C 145.010 133.256,143.422 133.759,142.471 133.961 C 141.521 134.163,140.441 134.600,140.071 134.933 C 139.702 135.265,138.860 135.669,138.200 135.830 C 137.540 135.990,136.491 136.544,135.869 137.061 C 135.247 137.577,134.527 138.001,134.269 138.001 C 134.011 138.002,132.270 139.084,130.400 140.407 C 128.530 141.729,126.370 143.239,125.600 143.761 C 124.830 144.283,122.490 146.496,120.400 148.679 C 117.079 152.147,115.444 154.240,111.751 159.753 C 110.132 162.169,106.367 169.809,105.912 171.600 C 105.661 172.590,105.147 173.940,104.770 174.600 C 104.394 175.260,103.959 176.698,103.804 177.795 C 103.649 178.892,103.252 180.313,102.920 180.954 C 102.318 182.119,101.401 189.072,100.856 196.600 C 100.411 202.758,101.727 216.144,103.165 220.090 C 103.624 221.350,104.000 222.796,104.000 223.305 C 104.000 223.814,104.350 224.916,104.777 225.754 C 105.204 226.592,105.676 227.837,105.826 228.519 C 106.152 230.002,109.110 236.297,109.633 236.620 C 109.835 236.745,110.000 237.103,110.000 237.416 C 110.000 238.006,112.551 242.200,113.474 243.129 C 113.763 243.419,114.000 243.817,114.000 244.013 C 114.000 245.450,124.436 256.158,128.448 258.837 C 132.445 261.507,134.239 262.604,136.023 263.468 C 140.470 265.622,142.249 266.400,142.728 266.400 C 143.012 266.400,143.999 266.738,144.922 267.151 C 147.780 268.430,153.148 269.019,153.823 268.127 C 154.597 267.106,154.667 133.546,153.894 132.032 C 153.260 130.790,153.073 130.762,150.200 131.487 M266.800 132.003 C 263.971 132.139,262.208 132.421,261.400 132.866 C 260.740 133.229,259.149 134.014,257.865 134.610 C 253.656 136.563,248.681 142.100,247.753 145.865 C 247.599 146.489,247.187 147.442,246.837 147.982 C 246.021 149.241,245.635 266.878,246.444 267.853 C 247.257 268.833,292.854 268.645,293.748 267.658 C 294.372 266.968,294.412 262.723,294.310 208.358 L 294.200 149.800 293.300 148.116 C 292.805 147.190,292.400 146.093,292.400 145.678 C 292.400 144.606,289.556 140.345,287.525 138.374 C 282.040 133.050,277.027 131.509,266.800 132.003 M153.501 200.267 L 153.400 267.400 150.400 267.335 C 148.226 267.288,146.964 267.041,145.815 266.435 C 144.944 265.976,143.864 265.594,143.415 265.587 C 142.967 265.581,141.700 265.132,140.600 264.591 C 139.500 264.050,138.383 263.606,138.118 263.604 C 137.853 263.602,136.966 263.145,136.147 262.590 C 135.328 262.034,134.240 261.475,133.729 261.346 C 133.218 261.218,132.800 260.956,132.800 260.765 C 132.800 260.573,132.125 260.045,131.300 259.592 C 127.758 257.646,121.412 252.290,120.394 250.388 C 120.162 249.955,119.737 249.600,119.450 249.600 C 119.163 249.600,118.721 249.145,118.468 248.589 C 118.214 248.033,117.735 247.473,117.403 247.346 C 117.072 247.219,116.800 246.862,116.800 246.554 C 116.800 246.245,116.260 245.428,115.600 244.737 C 114.940 244.046,114.400 243.328,114.400 243.141 C 114.400 242.953,114.085 242.479,113.700 242.088 C 113.315 241.696,112.640 240.676,112.200 239.821 C 111.760 238.966,111.066 237.622,110.658 236.833 C 110.251 236.045,109.682 235.130,109.396 234.800 C 109.109 234.470,108.676 233.456,108.434 232.547 C 108.192 231.637,107.745 230.686,107.441 230.434 C 107.136 230.181,106.768 229.183,106.623 228.215 C 106.478 227.248,106.026 226.033,105.619 225.516 C 105.205 224.989,104.755 223.524,104.596 222.187 C 104.441 220.874,103.978 219.025,103.569 218.078 C 101.419 213.099,101.431 186.875,103.587 182.200 C 103.992 181.320,104.449 179.526,104.602 178.213 C 104.754 176.900,105.201 175.417,105.594 174.917 C 105.986 174.418,106.427 173.212,106.573 172.237 C 106.720 171.263,107.099 170.250,107.417 169.986 C 107.734 169.722,108.192 168.763,108.434 167.853 C 108.676 166.944,109.109 165.930,109.396 165.600 C 109.682 165.270,110.251 164.355,110.658 163.567 C 111.066 162.778,111.760 161.434,112.200 160.579 C 112.640 159.724,113.315 158.704,113.700 158.312 C 114.085 157.921,114.400 157.446,114.400 157.258 C 114.400 157.071,114.805 156.456,115.300 155.893 C 117.351 153.559,118.800 151.628,118.800 151.227 C 118.800 150.992,119.064 150.800,119.386 150.800 C 119.708 150.800,120.156 150.456,120.381 150.036 C 120.908 149.051,123.051 146.908,124.036 146.381 C 124.456 146.156,124.800 145.708,124.800 145.386 C 124.800 145.064,125.030 144.800,125.311 144.800 C 125.882 144.800,130.125 141.726,130.333 141.161 C 130.407 140.963,130.708 140.800,131.003 140.800 C 131.297 140.800,132.060 140.362,132.696 139.826 C 133.333 139.290,134.341 138.730,134.936 138.580 C 135.532 138.431,136.246 137.985,136.523 137.589 C 136.800 137.193,137.698 136.743,138.517 136.589 C 139.337 136.435,140.420 135.985,140.925 135.588 C 141.430 135.191,142.553 134.739,143.421 134.584 C 144.290 134.429,145.630 133.966,146.400 133.555 C 148.211 132.588,152.879 131.978,153.301 132.652 C 153.467 132.917,153.557 163.343,153.501 200.267 M189.997 133.324 C 184.806 135.530,179.539 140.091,178.133 143.600 C 177.824 144.370,177.173 145.810,176.686 146.800 L 175.800 148.600 175.690 207.757 C 175.587 263.081,175.624 266.963,176.263 267.670 C 177.161 268.661,222.138 268.648,223.334 267.655 C 224.292 266.860,224.361 154.299,223.406 150.797 C 223.076 149.589,222.609 147.742,222.369 146.694 C 222.128 145.646,221.700 144.557,221.417 144.275 C 221.135 143.992,220.617 143.206,220.267 142.529 C 218.402 138.924,213.844 135.165,208.969 133.213 C 204.310 131.347,194.516 131.405,189.997 133.324 M207.205 133.406 C 207.538 133.706,208.663 134.180,209.705 134.459 C 210.747 134.738,211.600 135.105,211.600 135.275 C 211.600 135.445,212.275 135.932,213.100 136.358 C 215.073 137.377,219.600 142.109,219.600 143.153 C 219.600 143.399,219.915 143.916,220.300 144.301 C 220.691 144.693,221.397 146.768,221.900 149.005 L 222.800 153.008 222.800 210.086 L 222.800 267.164 221.500 267.396 C 220.785 267.524,210.390 267.577,198.400 267.514 L 176.600 267.400 176.600 208.200 L 176.600 149.000 177.700 146.821 C 178.305 145.623,178.800 144.382,178.800 144.064 C 178.800 143.447,178.978 143.240,182.977 139.200 C 186.474 135.666,187.568 134.900,189.840 134.391 C 190.911 134.151,192.061 133.707,192.396 133.403 C 193.611 132.304,205.988 132.306,207.205 133.406 M277.467 133.410 C 278.005 133.948,280.461 134.793,281.500 134.798 C 281.775 134.799,282.000 134.952,282.000 135.137 C 282.000 135.322,282.661 135.817,283.468 136.237 C 285.399 137.240,288.912 140.739,289.560 142.303 C 289.842 142.985,290.417 143.853,290.837 144.233 C 291.256 144.613,291.600 145.394,291.600 145.968 C 291.600 146.542,292.005 147.729,292.500 148.606 L 293.400 150.200 293.510 208.107 C 293.587 248.370,293.491 266.256,293.196 266.807 C 292.781 267.584,292.295 267.600,269.786 267.600 L 246.800 267.600 246.800 208.889 C 246.800 157.934,246.878 150.067,247.387 149.340 C 247.710 148.879,248.158 147.680,248.383 146.674 C 248.609 145.668,249.245 144.180,249.797 143.367 C 250.348 142.554,250.800 141.643,250.800 141.344 C 250.800 141.045,251.074 140.800,251.409 140.800 C 251.743 140.800,252.222 140.350,252.473 139.800 C 252.723 139.250,253.072 138.800,253.248 138.800 C 253.424 138.800,254.070 138.341,254.684 137.781 C 256.342 136.267,258.494 134.960,260.246 134.404 C 261.101 134.133,262.184 133.671,262.653 133.377 C 264.378 132.297,276.381 132.324,277.467 133.410 " stroke="none" fill="#83accc" fill-rule="evenodd"></path><path id="path3" d="M0.000 200.000 L 0.000 400.000 200.000 400.000 L 400.000 400.000 400.000 200.000 L 400.000 0.000 200.000 0.000 L 0.000 0.000 0.000 200.000 M369.746 30.029 L 370.800 30.858 370.800 199.793 L 370.800 368.729 369.569 369.764 L 368.339 370.800 199.805 370.800 L 31.271 370.800 30.236 369.569 L 29.200 368.339 29.200 199.930 L 29.200 31.521 30.442 30.360 L 31.685 29.200 200.188 29.200 L 368.692 29.200 369.746 30.029 M61.600 59.332 C 61.050 59.621,60.195 60.113,59.700 60.425 L 58.800 60.992 58.800 200.269 L 58.800 339.546 59.962 340.373 L 61.123 341.200 198.877 341.200 C 333.777 341.200,336.676 341.184,338.815 340.431 L 341.000 339.661 341.104 200.331 C 341.180 97.442,341.089 60.712,340.755 59.900 L 340.303 58.800 201.451 58.802 C 87.407 58.804,62.421 58.899,61.600 59.332 M155.148 130.224 C 156.737 132.244,156.762 133.415,156.680 202.096 L 156.600 268.792 155.517 269.796 C 154.058 271.149,151.310 271.166,148.579 269.838 C 147.439 269.284,145.592 268.801,144.223 268.699 C 142.353 268.559,141.723 268.338,141.274 267.661 C 140.873 267.057,140.291 266.800,139.325 266.800 C 138.471 266.800,137.448 266.419,136.636 265.800 C 135.914 265.250,134.957 264.800,134.508 264.800 C 134.059 264.800,133.397 264.350,133.037 263.800 C 132.639 263.192,132.004 262.800,131.420 262.800 C 130.870 262.800,130.121 262.371,129.671 261.800 C 129.239 261.250,128.592 260.800,128.234 260.800 C 127.876 260.800,127.385 260.366,127.143 259.836 C 126.854 259.201,126.245 258.785,125.363 258.620 C 124.626 258.481,123.793 258.041,123.511 257.641 C 123.230 257.242,122.595 256.787,122.100 256.630 C 121.605 256.474,121.200 256.205,121.200 256.031 C 121.200 255.858,120.795 255.261,120.300 254.704 C 116.911 250.888,115.737 249.397,115.282 248.330 C 114.996 247.662,114.411 247.024,113.982 246.911 C 113.490 246.783,113.200 246.363,113.200 245.781 C 113.200 245.126,112.937 244.818,112.300 244.728 C 111.681 244.640,111.364 244.287,111.283 243.600 C 111.117 242.175,110.356 240.800,109.732 240.800 C 109.434 240.800,109.200 240.369,109.200 239.820 C 109.200 239.281,108.956 238.696,108.658 238.520 C 107.981 238.120,107.200 236.663,107.200 235.800 C 107.200 235.440,106.750 234.557,106.200 233.836 C 105.650 233.114,105.200 232.001,105.200 231.362 C 105.199 230.700,104.769 229.700,104.200 229.038 C 103.503 228.228,103.200 227.403,103.200 226.317 C 103.200 225.313,102.844 224.234,102.200 223.286 C 101.368 222.061,101.200 221.343,101.200 219.001 C 101.200 216.823,100.997 215.828,100.300 214.594 C 98.998 212.288,98.885 187.351,100.167 185.394 C 100.667 184.631,101.031 183.117,101.214 181.045 C 101.426 178.633,101.671 177.737,102.233 177.326 C 102.785 176.923,102.992 176.202,103.049 174.493 C 103.102 172.860,103.422 171.682,104.157 170.400 C 104.725 169.410,105.193 168.316,105.195 167.970 C 105.198 167.623,105.650 166.917,106.200 166.400 C 106.796 165.840,107.200 165.017,107.200 164.361 C 107.200 163.756,107.650 162.727,108.200 162.073 C 108.750 161.419,109.200 160.590,109.200 160.230 C 109.200 159.870,109.515 159.459,109.900 159.317 C 110.811 158.980,111.186 158.404,111.194 157.329 C 111.197 156.850,111.630 156.120,112.156 155.706 C 112.681 155.293,113.178 154.605,113.260 154.177 C 113.344 153.737,113.797 153.345,114.304 153.272 C 114.900 153.187,115.200 152.869,115.200 152.321 C 115.200 151.461,120.814 145.584,122.106 145.090 C 122.494 144.942,122.970 144.411,123.164 143.910 C 123.603 142.772,125.115 141.378,126.300 141.019 C 126.795 140.869,127.200 140.569,127.200 140.353 C 127.200 140.136,127.836 139.693,128.614 139.369 C 129.391 139.044,130.233 138.326,130.485 137.773 C 130.866 136.936,131.132 136.809,132.072 137.016 C 132.929 137.204,133.200 137.115,133.200 136.646 C 133.200 135.884,134.410 135.200,135.756 135.200 C 136.310 135.200,137.214 134.750,137.764 134.200 C 138.402 133.562,139.214 133.200,140.009 133.200 C 140.720 133.200,141.815 132.772,142.564 132.200 C 143.534 131.461,144.366 131.200,145.759 131.200 C 147.109 131.200,148.059 130.917,149.114 130.200 C 151.198 128.784,154.023 128.795,155.148 130.224 M204.174 130.850 C 204.845 131.042,206.540 131.200,207.940 131.200 C 210.178 131.200,210.580 131.321,211.271 132.200 C 211.831 132.912,212.445 133.200,213.401 133.200 C 214.488 133.200,214.769 133.371,214.872 134.096 C 214.946 134.617,215.335 135.053,215.800 135.137 C 216.624 135.286,219.600 138.181,219.600 138.834 C 219.600 139.035,219.870 139.200,220.200 139.200 C 220.573 139.200,220.800 139.578,220.800 140.200 C 220.800 140.750,220.967 141.200,221.171 141.200 C 221.978 141.200,222.800 142.527,222.800 143.829 C 222.800 144.766,222.985 145.200,223.386 145.200 C 224.785 145.200,224.804 146.106,224.701 207.676 L 224.600 268.600 223.401 268.736 C 222.742 268.811,222.078 269.074,221.925 269.321 C 221.728 269.641,216.253 269.795,202.924 269.855 C 192.626 269.902,182.628 270.057,180.707 270.199 C 176.544 270.509,174.318 269.637,173.636 267.431 C 173.401 266.672,173.283 244.279,173.328 209.000 L 173.400 151.800 174.273 150.200 C 174.754 149.320,175.225 147.621,175.322 146.425 C 175.450 144.829,175.723 144.067,176.348 143.561 C 176.817 143.182,177.200 142.499,177.200 142.043 C 177.200 141.195,178.122 140.009,181.065 137.065 C 184.091 134.039,185.203 133.200,186.187 133.200 C 186.722 133.200,187.304 132.956,187.480 132.658 C 187.972 131.826,189.407 131.202,190.874 131.182 C 191.603 131.173,193.100 130.909,194.200 130.597 C 196.284 130.006,201.711 130.144,204.174 130.850 M274.000 130.600 C 274.583 130.933,276.114 131.178,277.669 131.186 C 279.921 131.198,280.525 131.356,281.527 132.200 C 282.181 132.750,283.084 133.200,283.535 133.200 C 283.986 133.200,284.593 133.540,284.884 133.956 C 285.175 134.371,286.088 134.993,286.912 135.338 C 287.737 135.682,288.518 136.242,288.648 136.582 C 288.779 136.922,289.293 137.200,289.791 137.200 C 290.576 137.200,290.732 137.467,290.962 139.200 C 291.142 140.553,291.414 141.200,291.804 141.200 C 292.122 141.200,292.722 141.875,293.139 142.700 C 293.555 143.525,294.179 144.740,294.524 145.400 C 295.542 147.343,295.697 155.254,295.843 212.856 L 295.979 266.713 295.078 268.051 C 293.654 270.163,292.719 270.467,288.400 270.220 C 286.310 270.101,276.113 269.964,265.739 269.917 C 246.285 269.828,245.200 269.738,245.200 268.207 C 245.200 268.062,244.939 267.682,244.621 267.364 C 243.732 266.474,243.696 159.415,244.584 154.400 C 244.914 152.530,245.189 149.907,245.193 148.572 C 245.199 146.486,245.341 146.022,246.200 145.275 C 246.956 144.618,247.200 144.014,247.200 142.803 C 247.200 141.870,247.391 141.200,247.656 141.200 C 248.244 141.200,249.171 139.979,249.187 139.183 C 249.210 138.070,254.766 133.200,256.013 133.200 C 256.426 133.200,257.428 132.750,258.238 132.200 C 259.421 131.397,260.205 131.200,262.210 131.200 C 263.584 131.200,265.314 130.937,266.054 130.616 C 267.807 129.855,272.679 129.845,274.000 130.600 " stroke="none" fill="#fbfcfc" fill-rule="evenodd"></path><path id="path4" d="M30.442 30.360 L 29.200 31.521 29.200 199.930 L 29.200 368.339 30.236 369.569 L 31.271 370.800 199.805 370.800 L 368.339 370.800 369.569 369.764 L 370.800 368.729 370.800 199.793 L 370.800 30.858 369.746 30.029 L 368.692 29.200 200.188 29.200 L 31.685 29.200 30.442 30.360 M368.823 31.689 L 370.000 32.978 370.000 200.013 L 370.000 367.048 368.753 368.324 L 367.505 369.600 200.195 369.600 L 32.885 369.600 31.642 368.440 L 30.400 367.279 30.400 200.070 L 30.400 32.861 31.436 31.631 L 32.471 30.400 200.058 30.400 L 367.645 30.400 368.823 31.689 M58.508 59.100 C 58.119 60.491,58.099 340.353,58.487 341.300 C 58.894 342.289,340.767 342.403,341.588 341.415 C 342.249 340.618,342.195 59.317,341.534 58.521 C 341.181 58.095,315.353 58.000,199.959 58.000 L 58.815 58.000 58.508 59.100 M340.755 59.900 C 341.089 60.712,341.180 97.442,341.104 200.331 L 341.000 339.661 338.815 340.431 C 336.676 341.184,333.777 341.200,198.877 341.200 L 61.123 341.200 59.962 340.373 L 58.800 339.546 58.800 200.269 L 58.800 60.992 59.700 60.425 C 60.195 60.113,61.050 59.621,61.600 59.332 C 62.421 58.899,87.407 58.804,201.451 58.802 L 340.303 58.800 340.755 59.900 M149.114 130.200 C 148.059 130.917,147.109 131.200,145.759 131.200 C 144.366 131.200,143.534 131.461,142.564 132.200 C 141.815 132.772,140.720 133.200,140.009 133.200 C 139.214 133.200,138.402 133.562,137.764 134.200 C 137.214 134.750,136.310 135.200,135.756 135.200 C 134.410 135.200,133.200 135.884,133.200 136.646 C 133.200 137.115,132.929 137.204,132.072 137.016 C 131.132 136.809,130.866 136.936,130.485 137.773 C 130.233 138.326,129.391 139.044,128.614 139.369 C 127.836 139.693,127.200 140.136,127.200 140.353 C 127.200 140.569,126.795 140.869,126.300 141.019 C 125.115 141.378,123.603 142.772,123.164 143.910 C 122.970 144.411,122.494 144.942,122.106 145.090 C 120.814 145.584,115.200 151.461,115.200 152.321 C 115.200 152.869,114.900 153.187,114.304 153.272 C 113.797 153.345,113.344 153.737,113.260 154.177 C 113.178 154.605,112.681 155.293,112.156 155.706 C 111.630 156.120,111.197 156.850,111.194 157.329 C 111.186 158.404,110.811 158.980,109.900 159.317 C 109.515 159.459,109.200 159.870,109.200 160.230 C 109.200 160.590,108.750 161.419,108.200 162.073 C 107.650 162.727,107.200 163.756,107.200 164.361 C 107.200 165.017,106.796 165.840,106.200 166.400 C 105.650 166.917,105.198 167.623,105.195 167.970 C 105.193 168.316,104.725 169.410,104.157 170.400 C 103.422 171.682,103.102 172.860,103.049 174.493 C 102.992 176.202,102.785 176.923,102.233 177.326 C 101.671 177.737,101.426 178.633,101.214 181.045 C 101.031 183.117,100.667 184.631,100.167 185.394 C 98.885 187.351,98.998 212.288,100.300 214.594 C 100.997 215.828,101.200 216.823,101.200 219.001 C 101.200 221.343,101.368 222.061,102.200 223.286 C 102.844 224.234,103.200 225.313,103.200 226.317 C 103.200 227.403,103.503 228.228,104.200 229.038 C 104.769 229.700,105.199 230.700,105.200 231.362 C 105.200 232.001,105.650 233.114,106.200 233.836 C 106.750 234.557,107.200 235.440,107.200 235.800 C 107.200 236.663,107.981 238.120,108.658 238.520 C 108.956 238.696,109.200 239.281,109.200 239.820 C 109.200 240.369,109.434 240.800,109.732 240.800 C 110.356 240.800,111.117 242.175,111.283 243.600 C 111.364 244.287,111.681 244.640,112.300 244.728 C 112.937 244.818,113.200 245.126,113.200 245.781 C 113.200 246.363,113.490 246.783,113.982 246.911 C 114.411 247.024,114.996 247.662,115.282 248.330 C 115.737 249.397,116.911 250.888,120.300 254.704 C 120.795 255.261,121.200 255.858,121.200 256.031 C 121.200 256.205,121.605 256.474,122.100 256.630 C 122.595 256.787,123.230 257.242,123.511 257.641 C 123.793 258.041,124.626 258.481,125.363 258.620 C 126.245 258.785,126.854 259.201,127.143 259.836 C 127.385 260.366,127.876 260.800,128.234 260.800 C 128.592 260.800,129.239 261.250,129.671 261.800 C 130.121 262.371,130.870 262.800,131.420 262.800 C 132.004 262.800,132.639 263.192,133.037 263.800 C 133.397 264.350,134.059 264.800,134.508 264.800 C 134.957 264.800,135.914 265.250,136.636 265.800 C 137.448 266.419,138.471 266.800,139.325 266.800 C 140.291 266.800,140.873 267.057,141.274 267.661 C 141.723 268.338,142.353 268.559,144.223 268.699 C 145.592 268.801,147.439 269.284,148.579 269.838 C 151.310 271.166,154.058 271.149,155.517 269.796 L 156.600 268.792 156.680 202.096 C 156.762 133.415,156.737 132.244,155.148 130.224 C 154.023 128.795,151.198 128.784,149.114 130.200 M153.824 130.568 C 155.020 131.443,155.254 267.351,154.061 268.824 C 153.407 269.632,153.174 269.691,152.158 269.304 C 151.521 269.062,149.740 268.754,148.200 268.619 C 146.470 268.469,145.018 268.099,144.400 267.654 C 143.850 267.257,142.686 266.817,141.813 266.677 C 140.940 266.537,139.770 266.093,139.213 265.691 C 138.656 265.289,137.425 264.734,136.479 264.458 C 135.532 264.181,134.662 263.706,134.545 263.402 C 134.429 263.098,133.800 262.732,133.148 262.588 C 132.495 262.445,131.747 261.984,131.485 261.564 C 131.222 261.144,130.723 260.800,130.376 260.800 C 130.028 260.800,129.139 260.260,128.400 259.600 C 127.661 258.940,126.949 258.400,126.819 258.400 C 126.689 258.400,125.714 257.603,124.652 256.628 C 123.591 255.653,122.453 254.752,122.123 254.626 C 121.794 254.499,121.430 254.037,121.315 253.598 C 121.201 253.159,120.864 252.800,120.567 252.800 C 120.271 252.800,119.852 252.470,119.636 252.067 C 119.420 251.663,118.468 250.510,117.522 249.504 C 116.575 248.498,115.260 246.932,114.600 246.024 C 113.940 245.117,112.995 243.859,112.500 243.229 C 112.005 242.600,111.600 241.818,111.600 241.491 C 111.600 241.165,111.305 240.653,110.945 240.355 C 110.585 240.056,109.958 239.089,109.550 238.206 C 109.143 237.323,108.647 236.330,108.448 236.000 C 107.342 234.168,105.600 230.287,105.600 229.654 C 105.600 229.250,105.180 228.127,104.666 227.160 C 104.153 226.192,103.612 224.512,103.464 223.426 C 103.316 222.340,102.916 221.026,102.575 220.506 C 102.234 219.985,101.780 217.904,101.565 215.880 C 101.351 213.856,100.911 210.994,100.588 209.521 C 99.892 206.348,99.770 193.365,100.416 191.197 C 100.646 190.429,101.095 187.745,101.414 185.233 C 101.734 182.721,102.240 180.291,102.539 179.833 C 102.838 179.375,103.285 177.849,103.532 176.442 C 103.778 175.036,104.246 173.591,104.571 173.232 C 104.896 172.873,105.283 171.824,105.430 170.900 C 105.578 169.977,106.127 168.642,106.649 167.933 C 107.172 167.224,107.600 166.355,107.600 166.000 C 107.600 165.645,108.050 164.745,108.600 164.000 C 109.150 163.255,109.600 162.342,109.600 161.971 C 109.600 161.601,109.883 161.063,110.229 160.776 C 110.575 160.489,111.209 159.566,111.637 158.727 C 112.066 157.887,112.593 157.200,112.808 157.200 C 113.024 157.200,113.200 156.946,113.200 156.636 C 113.200 155.024,124.508 143.364,128.550 140.808 C 129.897 139.956,131.465 138.897,132.034 138.454 C 132.603 138.011,133.535 137.531,134.105 137.388 C 134.675 137.245,135.236 136.884,135.350 136.586 C 135.464 136.288,136.332 135.821,137.279 135.547 C 138.225 135.273,139.429 134.723,139.954 134.324 C 140.479 133.926,141.289 133.594,141.754 133.587 C 142.219 133.581,143.500 133.132,144.600 132.591 C 145.700 132.050,147.140 131.596,147.800 131.581 C 148.460 131.567,149.810 131.215,150.800 130.800 C 153.016 129.870,152.884 129.880,153.824 130.568 M194.200 130.597 C 193.100 130.909,191.603 131.173,190.874 131.182 C 189.407 131.202,187.972 131.826,187.480 132.658 C 187.304 132.956,186.722 133.200,186.187 133.200 C 185.203 133.200,184.091 134.039,181.065 137.065 C 178.122 140.009,177.200 141.195,177.200 142.043 C 177.200 142.499,176.817 143.182,176.348 143.561 C 175.723 144.067,175.450 144.829,175.322 146.425 C 175.225 147.621,174.754 149.320,174.273 150.200 L 173.400 151.800 173.328 209.000 C 173.283 244.279,173.401 266.672,173.636 267.431 C 174.318 269.637,176.544 270.509,180.707 270.199 C 182.628 270.057,192.626 269.902,202.924 269.855 C 216.253 269.795,221.728 269.641,221.925 269.321 C 222.078 269.074,222.742 268.811,223.401 268.736 L 224.600 268.600 224.701 207.676 C 224.804 146.106,224.785 145.200,223.386 145.200 C 222.985 145.200,222.800 144.766,222.800 143.829 C 222.800 142.527,221.978 141.200,221.171 141.200 C 220.967 141.200,220.800 140.750,220.800 140.200 C 220.800 139.578,220.573 139.200,220.200 139.200 C 219.870 139.200,219.600 139.035,219.600 138.834 C 219.600 138.181,216.624 135.286,215.800 135.137 C 215.335 135.053,214.946 134.617,214.872 134.096 C 214.769 133.371,214.488 133.200,213.401 133.200 C 212.445 133.200,211.831 132.912,211.271 132.200 C 210.580 131.321,210.178 131.200,207.940 131.200 C 206.540 131.200,204.845 131.042,204.174 130.850 C 201.711 130.144,196.284 130.006,194.200 130.597 M266.054 130.616 C 265.314 130.937,263.584 131.200,262.210 131.200 C 260.205 131.200,259.421 131.397,258.238 132.200 C 257.428 132.750,256.426 133.200,256.013 133.200 C 254.766 133.200,249.210 138.070,249.187 139.183 C 249.171 139.979,248.244 141.200,247.656 141.200 C 247.391 141.200,247.200 141.870,247.200 142.803 C 247.200 144.014,246.956 144.618,246.200 145.275 C 245.341 146.022,245.199 146.486,245.193 148.572 C 245.189 149.907,244.914 152.530,244.584 154.400 C 243.696 159.415,243.732 266.474,244.621 267.364 C 244.939 267.682,245.200 268.062,245.200 268.207 C 245.200 269.738,246.285 269.828,265.739 269.917 C 276.113 269.964,286.310 270.101,288.400 270.220 C 292.719 270.467,293.654 270.163,295.078 268.051 L 295.979 266.713 295.843 212.856 C 295.697 155.254,295.542 147.343,294.524 145.400 C 294.179 144.740,293.555 143.525,293.139 142.700 C 292.722 141.875,292.122 141.200,291.804 141.200 C 291.414 141.200,291.142 140.553,290.962 139.200 C 290.732 137.467,290.576 137.200,289.791 137.200 C 289.293 137.200,288.779 136.922,288.648 136.582 C 288.518 136.242,287.737 135.682,286.912 135.338 C 286.088 134.993,285.175 134.371,284.884 133.956 C 284.593 133.540,283.986 133.200,283.535 133.200 C 283.084 133.200,282.181 132.750,281.527 132.200 C 280.525 131.356,279.921 131.198,277.669 131.186 C 276.114 131.178,274.583 130.933,274.000 130.600 C 272.679 129.845,267.807 129.855,266.054 130.616 M204.495 131.553 C 207.130 131.765,208.618 132.073,209.095 132.502 C 209.483 132.852,210.340 133.269,211.000 133.428 C 213.757 134.097,220.800 140.480,220.800 142.311 C 220.800 142.694,221.151 143.227,221.580 143.495 C 222.009 143.763,222.486 144.661,222.641 145.491 C 222.795 146.321,223.209 147.442,223.560 147.982 C 224.566 149.527,224.746 267.215,223.744 268.047 C 223.070 268.606,178.665 269.144,176.544 268.619 C 175.128 268.268,175.144 268.962,175.166 209.000 C 175.188 151.459,175.282 147.091,176.534 145.645 C 176.841 145.290,177.206 144.521,177.345 143.935 C 177.484 143.350,178.003 142.385,178.499 141.791 C 181.368 138.352,184.017 135.605,184.469 135.602 C 184.617 135.601,185.260 135.162,185.896 134.626 C 186.533 134.090,187.582 133.522,188.227 133.363 C 188.872 133.204,189.841 132.787,190.381 132.437 C 192.009 131.380,197.831 131.016,204.495 131.553 M275.503 131.566 C 277.559 131.763,279.070 132.119,279.503 132.510 C 279.886 132.855,280.740 133.269,281.400 133.428 C 283.747 133.997,289.263 138.615,290.536 141.077 C 290.872 141.727,291.418 142.483,291.748 142.757 C 292.078 143.031,292.470 143.828,292.617 144.528 C 292.765 145.227,293.272 146.430,293.743 147.200 L 294.600 148.600 294.709 207.757 C 294.806 260.560,294.752 267.014,294.200 267.857 L 293.582 268.800 270.267 268.800 C 252.243 268.800,246.799 268.687,246.276 268.300 C 245.645 267.834,245.599 263.736,245.595 208.448 L 245.591 149.097 246.595 146.973 C 247.148 145.805,247.600 144.623,247.600 144.346 C 247.600 142.313,255.983 133.600,257.939 133.600 C 258.309 133.600,259.329 133.210,260.206 132.733 C 262.643 131.409,268.878 130.933,275.503 131.566 " stroke="none" fill="#e2f0f4" fill-rule="evenodd"></path></g></svg>