<svg width="1000" height="1000" viewBox="0 0 1000 1000" fill="none" xmlns="http://www.w3.org/2000/svg">
<path d="M617.116 156.504L408.896 152.026L400.828 599.913L477.902 523.428L631.707 506.374L617.116 156.504Z" fill="#00AEDA"/>
<path d="M375.579 155.643L387.252 512.231C339.531 521.016 237.052 506.029 209.759 375.452C182.465 244.876 308.805 174.42 375.579 155.643Z" fill="#00AEDA"/>
<path d="M643.688 218.692L647.636 500.344C695.356 509.13 796.29 501.206 817.748 399.053C839.205 296.9 710.634 236.263 643.688 218.692Z" fill="#00AEDA"/>
<path d="M677.51 619.379C632.708 619.379 596.316 655.899 596.316 700.86C596.316 745.821 632.708 782.341 677.51 782.341C722.313 782.341 758.704 745.821 758.704 700.86C758.704 655.899 722.313 619.379 677.51 619.379ZM677.51 741.17C655.366 741.17 637.342 723.082 637.342 700.86C637.342 678.638 655.366 660.55 677.51 660.55C699.654 660.55 717.678 678.638 717.678 700.86C717.678 723.082 699.654 741.17 677.51 741.17Z" fill="#364656"/>
<path d="M398.92 672.953H329.742V713.608H398.92V672.953Z" fill="#364656"/>
<path d="M532.11 623.858V627.131C531.252 626.787 530.394 626.442 529.535 626.098C528.849 625.753 528.162 625.581 527.476 625.236C525.931 624.547 524.386 624.03 522.841 623.514C521.124 622.997 519.408 622.48 517.52 621.963C516.661 621.791 515.631 621.446 514.773 621.274C513.056 620.93 511.168 620.585 509.28 620.241C505.16 619.552 500.869 619.207 496.062 619.035C484.561 619.207 473.919 621.274 463.963 625.409C454.178 629.543 445.767 635.4 438.729 642.635C431.691 649.87 426.198 658.311 422.25 667.958C419.332 675.193 417.444 682.945 416.757 691.041C416.414 694.314 416.07 697.415 416.07 700.688C416.07 745.649 452.462 782.169 497.264 782.169C509.623 782.169 521.468 779.241 531.939 774.245C531.767 780.102 530.737 785.098 529.192 789.232C527.304 794.056 524.729 797.845 521.296 800.602C518.034 803.53 514.086 805.597 509.452 806.803C504.989 808.009 500.011 808.526 494.689 808.526C484.905 808.526 475.979 807.148 467.911 804.564C459.843 802.152 452.462 798.707 445.595 794.228L427.056 827.475C435.983 833.676 446.11 838.672 457.611 842.462C469.112 846.079 481.643 847.974 495.204 847.974C506.19 847.974 516.49 846.424 526.446 843.323C536.402 840.395 544.985 835.744 552.538 829.37C560.09 823.168 566.098 815.244 570.561 805.77C575.025 796.295 577.256 785.098 577.256 772.006V623.686H532.11V623.858ZM497.264 741.17C475.12 741.17 457.096 723.083 457.096 700.86C457.096 678.638 475.12 660.551 497.264 660.551C519.408 660.551 537.432 678.638 537.432 700.86C537.432 723.083 519.408 741.17 497.264 741.17Z" fill="#364656"/>
<path d="M777.211 623.858H846.389V737.725H846.56V778.724H800.213V737.725H800.385V664.857H777.211V623.858V623.858Z" fill="#364656"/>
<path d="M797.125 578.38C797.125 574.763 797.812 571.317 799.013 568.044C800.386 564.771 802.275 561.843 804.678 559.603C807.081 557.192 809.828 555.297 813.089 553.918C816.351 552.54 819.955 551.851 823.732 551.851C827.337 551.851 830.598 552.54 833.86 553.918C837.121 555.297 839.868 557.192 842.271 559.603C844.674 562.015 846.562 564.771 847.935 568.044C849.309 571.317 849.995 574.59 849.995 578.38C849.995 581.998 849.309 585.615 847.935 588.888C846.562 592.161 844.674 594.917 842.271 597.329C839.868 599.741 837.121 601.636 833.86 603.014C830.77 604.392 827.337 605.081 823.732 605.081C819.955 605.081 816.522 604.392 813.089 603.014C809.999 601.636 807.081 599.741 804.678 597.329C802.275 594.917 800.386 592.161 799.013 588.888C797.812 585.615 797.125 582.17 797.125 578.38Z" fill="#364656"/>
<path d="M308.268 706.028C308.268 703.616 308.096 701.032 307.753 698.621C307.409 687.596 305.521 677.26 302.088 667.613C298.655 657.966 293.677 649.525 287.154 642.462C280.631 635.227 272.735 629.715 263.294 625.753C254.024 621.618 243.21 619.551 231.194 619.551C219.006 619.551 208.02 621.618 198.064 625.925C188.108 630.232 179.525 636.089 172.487 643.496C165.277 650.903 159.784 659.517 155.836 669.508C151.888 679.499 150 690.18 150 701.549C150 712.919 151.888 723.599 155.493 733.763C159.269 743.926 164.591 752.712 171.8 760.291C179.01 767.871 187.765 773.9 198.236 778.379C208.707 782.686 220.551 784.925 233.94 784.925C241.15 784.925 247.329 784.581 252.651 783.719C257.972 783.03 263.122 781.824 267.757 780.274C272.563 778.724 277.198 776.657 281.832 774.245C286.639 771.833 291.789 768.732 297.453 765.287L281.146 734.624C277.541 736.002 273.765 737.38 270.331 738.586C266.727 739.792 263.122 740.825 259.345 741.859C255.569 742.72 251.621 743.582 247.501 744.099C243.553 744.615 239.262 744.788 234.798 744.788C230.335 744.788 225.872 744.271 221.581 743.065C217.289 741.859 213.17 740.136 209.737 737.897C206.132 735.658 203.042 732.729 200.295 729.456C197.721 726.011 195.832 722.049 194.802 717.57L194.287 712.919H308.096C308.439 710.851 308.439 708.44 308.268 706.028ZM195.832 681.911C196.691 678.638 197.892 675.537 199.609 672.436C201.325 669.336 203.385 666.752 205.96 664.512C208.707 662.101 211.968 660.206 215.745 659C219.693 657.622 224.499 656.933 229.992 656.933C235.313 656.933 239.605 657.622 243.038 659C246.643 660.378 249.561 662.101 251.793 664.34C254.024 666.579 255.912 669.336 257.114 672.264C258.487 675.193 259.345 678.466 260.032 681.911H195.832V681.911Z" fill="#364656"/>
</svg>
