<?xml version="1.0" encoding="utf-8"?>
<!-- Generator: Adobe Illustrator 25.4.1, SVG Export Plug-In . SVG Version: 6.00 Build 0)  -->
<svg version="1.0" id="Layer_1" xmlns="http://www.w3.org/2000/svg" xmlns:xlink="http://www.w3.org/1999/xlink" x="0px" y="0px"
	 viewBox="0 0 281.5 55.7" enable-background="new 0 0 281.5 55.7" xml:space="preserve">
<path fill-rule="evenodd" clip-rule="evenodd" d="M9.9,44.2c-1.7,1.5-3.2,1.3-4.7,1.5c-1.4,0-2.7,0.6-3.8,1.5
	c-1.9,2-1.9,5.2,0.1,7.1c1.9,1.9,5,1.9,6.9,0c0.9-1.1,1.4-2.4,1.4-3.8c0.1-1.5,0.1-3.1,1.5-4.7c1.6-1.4,3.2-1.4,4.7-1.5
	c1.4,0,2.7-0.6,3.8-1.5c1.9-2,1.9-5.2-0.1-7.1c-1.9-1.9-5-1.9-6.9,0c-0.9,1.1-1.4,2.4-1.5,3.8C11.2,41,11.4,42.5,9.9,44.2L9.9,44.2z
	"/>
<path fill-rule="evenodd" clip-rule="evenodd" d="M44,9.9c-1.7,1.5-3.2,1.3-4.7,1.5c-1.4,0.1-2.7,0.6-3.8,1.5
	c-1.7,2.1-1.4,5.3,0.7,7c1.8,1.5,4.5,1.5,6.3,0c0.9-1.1,1.4-2.4,1.5-3.8c0.1-1.5,0.1-3.1,1.5-4.7c1.6-1.4,3.2-1.4,4.7-1.5
	c1.4,0,2.7-0.6,3.8-1.5c1.8-2.1,1.7-5.2-0.4-7.1c-1.9-1.7-4.8-1.7-6.7,0c-0.9,1.1-1.4,2.4-1.5,3.8C45.3,6.7,45.5,8.2,44,9.9L44,9.9z
	"/>
<path fill-rule="evenodd" clip-rule="evenodd" d="M44,45.8c1.5,1.7,1.3,3.2,1.5,4.7c0,1.4,0.6,2.7,1.5,3.8c2,1.9,5.2,1.9,7.1-0.1
	c1.9-1.9,1.9-5,0-6.9c-1.1-0.9-2.4-1.4-3.8-1.5c-1.5-0.1-3.1-0.1-4.7-1.5c-1.4-1.6-1.4-3.2-1.5-4.7c0-1.4-0.6-2.7-1.5-3.8
	c-2-1.9-5.2-1.9-7.1,0.1c-1.9,1.9-1.9,5,0,6.9c1.1,0.9,2.4,1.4,3.8,1.5C40.9,44.5,42.4,44.3,44,45.8L44,45.8z"/>
<path fill-rule="evenodd" clip-rule="evenodd" d="M9.9,11.4c1.5,1.7,1.3,3.2,1.5,4.7c0,1.4,0.5,2.7,1.4,3.8c1.7,2.2,4.9,2.5,7,0.8
	s2.5-4.9,0.8-7c-0.2-0.3-0.5-0.5-0.8-0.8c-1.1-0.9-2.4-1.4-3.8-1.5c-1.5-0.1-3.1-0.1-4.7-1.5C10,8.3,10,6.7,9.9,5.2
	c0-1.4-0.5-2.8-1.5-3.8c-2-1.9-5.2-1.9-7.1,0.1c-1.9,1.9-1.9,5,0,6.9c1.1,0.9,2.4,1.4,3.8,1.4C6.7,10.1,8.2,9.9,9.9,11.4L9.9,11.4z"
	/>
<path fill-rule="evenodd" clip-rule="evenodd" fill="#FF671F" d="M27.7,33.8c3.3,0,6-2.7,6-6s-2.7-6-6-6s-6,2.7-6,6l0,0
	C21.7,31.2,24.3,33.8,27.7,33.8z"/>
<path d="M86.3,33.7l-2.1,5.1c-0.2,0.6-0.8,1-1.4,1h-1.2c-0.7,0-1.3-0.6-1.3-1.3c0,0,0,0,0,0c0-0.2,0-0.3,0.1-0.5l8.9-21.1
	c0.2-0.6,0.8-1,1.4-1h1.6c0.6,0,1.2,0.4,1.4,1l8.9,21.1c0.1,0.2,0.1,0.3,0.1,0.5c0,0.7-0.6,1.3-1.3,1.3c0,0,0,0,0,0H100
	c-0.6,0-1.2-0.4-1.4-1l-2.1-5.1H86.3z M87.9,29.8h7l-3.5-8.5L87.9,29.8z"/>
<path d="M122.6,24.6l5.2-7.8c0.4-0.5,1-0.8,1.6-0.8h1.6c0.7,0,1.2,0.5,1.2,1.2c0,0.2-0.1,0.5-0.2,0.7l-6.7,9.8l7,10.3
	c0.1,0.2,0.2,0.4,0.2,0.7c0,0.7-0.5,1.2-1.2,1.2c0,0,0,0,0,0h-1.6c-0.6,0-1.2-0.3-1.6-0.8l-5.6-8.1l-5.5,8.1c-0.4,0.5-1,0.8-1.6,0.8
	h-1.6c-0.7,0-1.2-0.5-1.2-1.2c0-0.2,0.1-0.5,0.2-0.7l7-10.3l-6.7-9.8c-0.1-0.2-0.2-0.4-0.2-0.7c0-0.7,0.5-1.2,1.2-1.2c0,0,0,0,0,0
	h1.6c0.6,0,1.2,0.3,1.6,0.8L122.6,24.6z"/>
<path d="M154.3,15.6c7.1,0,12.4,4.9,12.4,12.3c0.2,6.6-5.1,12.1-11.7,12.3c-0.2,0-0.5,0-0.7,0c-7.1,0-12.4-4.9-12.4-12.2
	c-0.2-6.6,5.1-12.1,11.7-12.3C153.8,15.6,154,15.6,154.3,15.6z M154.3,36.2c5,0,8-3.7,8-8.4c0-4.9-3.5-8.4-8-8.4s-8,3.4-8,8.4
	c-0.2,4.4,3.2,8.1,7.6,8.3C154,36.2,154.1,36.2,154.3,36.2L154.3,36.2z"/>
<path d="M198.6,16c0.7,0,1.2,0.6,1.3,1.3v21.3c0,0.7-0.6,1.2-1.3,1.3h-1.2c-0.6,0-1.2-0.3-1.5-0.8l-12.4-15.7v15.2
	c0,0.7-0.6,1.2-1.3,1.3h-1.4c-0.7,0-1.2-0.6-1.3-1.3V17.2c0-0.7,0.6-1.2,1.3-1.3h1.2c0.6,0,1.2,0.3,1.5,0.8l12.5,15.7V17.2
	c0-0.7,0.6-1.2,1.3-1.3H198.6z"/>
<path d="M219.1,38.5c0,0.7-0.6,1.2-1.3,1.3h-1.7c-0.7,0-1.2-0.6-1.3-1.3V17.2c0-0.7,0.6-1.2,1.3-1.3h1.7c0.7,0,1.2,0.6,1.3,1.3
	L219.1,38.5z"/>
<path d="M249.3,17.2c0-0.7,0.6-1.2,1.3-1.3h1.6c0.7,0,1.2,0.6,1.3,1.3v12.7c0,7.3-4.4,10.2-9.4,10.2c-5.9,0-10.1-3.5-10.1-10.5V17.2
	c0-0.7,0.6-1.2,1.3-1.3h1.7c0.7,0,1.2,0.6,1.3,1.3v11.6c0,4.4,1.8,7.4,5.9,7.4c3.6,0,5.3-2.5,5.3-7.2L249.3,17.2z"/>
<path d="M267.4,34.3c0.2-0.2,0.5-0.4,0.9-0.4c0.4,0,0.7,0.1,1,0.4c1.2,1.1,2.7,1.8,4.3,1.9c2,0,3.5-1,3.5-2.8
	c0-4.7-10.8-3.5-10.8-11.3c0-3.6,2.8-6.6,7.4-6.6c2,0,4,0.5,5.7,1.5c0.4,0.2,0.6,0.6,0.6,1.1c0,0.2-0.1,0.4-0.2,0.6l-0.6,1.1
	c-0.2,0.4-0.7,0.7-1.1,0.7c-0.2,0-0.4,0-0.6-0.1c-1.1-0.5-2.2-0.9-3.4-0.9c-2.1,0-3.3,1-3.3,2.6c0,4.9,10.8,3.4,10.8,11.3
	c0,4-3.5,6.7-8,6.7c-2.6,0-5.2-1-7-2.9c-0.3-0.3-0.4-0.6-0.4-1c0-0.3,0.1-0.6,0.3-0.8L267.4,34.3z"/>
</svg>
