<?xml version="1.0" standalone="no"?>
<!DOCTYPE svg PUBLIC "-//W3C//DTD SVG 20010904//EN"
 "http://www.w3.org/TR/2001/REC-SVG-20010904/DTD/svg10.dtd">
<svg version="1.0" xmlns="http://www.w3.org/2000/svg"
 width="400.000000pt" height="400.000000pt" viewBox="0 0 400.000000 400.000000"
 preserveAspectRatio="xMidYMid meet">

<g transform="translate(0.000000,400.000000) scale(0.100000,-0.100000)"
fill="#000000" stroke="none">
<path d="M838 3984 c-97 -15 -240 -60 -320 -100 -215 -109 -383 -313 -461
-560 -58 -183 -57 -155 -57 -1808 l0 -1516 360 0 360 0 0 585 0 585 375 0 375
0 0 -585 0 -585 365 0 365 0 0 585 0 585 900 0 900 0 0 290 0 290 -901 0 -901
0 4 178 c3 154 6 183 24 222 27 58 67 93 129 117 47 17 101 18 848 21 l797 3
0 290 0 290 -962 -3 -963 -3 -90 -28 c-137 -43 -219 -91 -306 -178 -63 -62
-85 -93 -122 -170 -68 -142 -79 -203 -85 -491 l-5 -248 -373 0 -374 0 0 498
c0 648 10 755 85 909 57 116 156 186 320 229 66 17 156 18 1473 21 l1402 4 0
294 0 295 -1537 -1 c-1242 -1 -1555 -4 -1625 -15z"/>
</g>
</svg>
